<svg width="147" height="128" viewBox="0 0 147 128" fill="none" xmlns="http://www.w3.org/2000/svg">
<path d="M0 10.2382C0 5.47801 3.85887 1.61914 8.61903 1.61914H34.4177C39.1779 1.61914 43.0367 5.47801 43.0367 10.2382V116.812C43.0367 121.572 39.1779 125.431 34.4177 125.431H8.61903C3.85887 125.431 0 121.572 0 116.812V10.2382Z" fill="#FFC30D"/>
<path d="M103.263 10.2382C103.263 5.47801 107.122 1.61914 111.882 1.61914H137.68C142.441 1.61914 146.299 5.47801 146.299 10.2382V116.812C146.299 121.572 142.441 125.431 137.68 125.431H111.882C107.122 125.431 103.263 121.572 103.263 116.812V10.2382Z" fill="#04C7D9"/>
<path d="M56.4094 8.5855C56.8289 3.84386 61.0135 0.332627 65.7559 0.742944L91.455 2.96643C96.1974 3.37675 99.7019 7.55323 99.2824 12.2949L89.8898 118.464C89.4703 123.206 85.2857 126.717 80.5433 126.307L54.8442 124.084C50.1017 123.673 46.5973 119.497 47.0168 114.755L56.4094 8.5855Z" fill="#FF6890"/>
<ellipse cx="20.8663" cy="104.796" rx="9.12901" ry="9.02794" fill="white"/>
<ellipse cx="9.12824" cy="9.02871" rx="9.12824" ry="9.02871" transform="matrix(0.996278 0.0861981 -0.0881239 0.996109 60.5645 94.802)" fill="white"/>
<ellipse cx="125.434" cy="104.796" rx="9.12901" ry="9.02794" fill="white"/>
</svg>
