<svg xmlns="http://www.w3.org/2000/svg" width="1200" height="630" viewBox="0 0 1200 630">
  <defs>
    <linearGradient id="bg" x1="0%" y1="0%" x2="100%" y2="100%">
      <stop offset="0%" style="stop-color:#0a0e27"/>
      <stop offset="100%" style="stop-color:#1a1a4e"/>
    </linearGradient>
    <linearGradient id="textBg" x1="0%" y1="0%" x2="0%" y2="100%">
      <stop offset="0%" style="stop-color:#1a1a4e;stop-opacity:0"/>
      <stop offset="40%" style="stop-color:#1a1a4e;stop-opacity:0.85"/>
      <stop offset="100%" style="stop-color:#0a0e27;stop-opacity:0.95"/>
    </linearGradient>
    <filter id="glow">
      <feGaussianBlur stdDeviation="4" result="blur"/>
      <feMerge><feMergeNode in="blur"/><feMergeNode in="SourceGraphic"/></feMerge>
    </filter>
  </defs>

  <!-- Background -->
  <rect width="1200" height="630" fill="url(#bg)"/>

  <!-- Network pattern -->
  <line x1="182.6" y1="349.4" x2="87.1" y2="259.3" stroke="#00d4ff" stroke-width="0.8" opacity="0.051"/><line x1="182.6" y1="349.4" x2="163.4" y2="390.6" stroke="#00d4ff" stroke-width="0.8" opacity="0.116"/><line x1="182.6" y1="349.4" x2="303.6" y2="203.8" stroke="#00d4ff" stroke-width="0.8" opacity="0.008"/><line x1="182.6" y1="349.4" x2="59.8" y2="301.2" stroke="#00d4ff" stroke-width="0.8" opacity="0.051"/><line x1="87.1" y1="259.3" x2="163.4" y2="390.6" stroke="#00d4ff" stroke-width="0.8" opacity="0.036"/><line x1="87.1" y1="259.3" x2="59.8" y2="301.2" stroke="#00d4ff" stroke-width="0.8" opacity="0.113"/><line x1="906.7" y1="281.6" x2="968.5" y2="465.4" stroke="#00d4ff" stroke-width="0.8" opacity="0.005"/><line x1="906.7" y1="281.6" x2="881.7" y2="236.8" stroke="#00d4ff" stroke-width="0.8" opacity="0.111"/><line x1="906.7" y1="281.6" x2="796.9" y2="250.7" stroke="#00d4ff" stroke-width="0.8" opacity="0.064"/><line x1="906.7" y1="281.6" x2="1096.7" y2="278.2" stroke="#00d4ff" stroke-width="0.8" opacity="0.007"/><line x1="906.7" y1="281.6" x2="786.2" y2="248.9" stroke="#00d4ff" stroke-width="0.8" opacity="0.056"/><line x1="968.5" y1="465.4" x2="891.9" y2="627.9" stroke="#00d4ff" stroke-width="0.8" opacity="0.015"/><line x1="555.0" y1="538.9" x2="618.1" y2="502.1" stroke="#00d4ff" stroke-width="0.8" opacity="0.095"/><line x1="555.0" y1="538.9" x2="371.1" y2="466.5" stroke="#00d4ff" stroke-width="0.8" opacity="0.002"/><line x1="555.0" y1="538.9" x2="602.9" y2="355.3" stroke="#00d4ff" stroke-width="0.8" opacity="0.008"/><line x1="555.0" y1="538.9" x2="554.7" y2="411.2" stroke="#00d4ff" stroke-width="0.8" opacity="0.054"/><line x1="427.6" y1="155.1" x2="387.7" y2="268.4" stroke="#00d4ff" stroke-width="0.8" opacity="0.060"/><line x1="427.6" y1="155.1" x2="453.7" y2="283.8" stroke="#00d4ff" stroke-width="0.8" opacity="0.051"/><line x1="427.6" y1="155.1" x2="303.6" y2="203.8" stroke="#00d4ff" stroke-width="0.8" opacity="0.050"/><line x1="427.6" y1="155.1" x2="302.9" y2="183.0" stroke="#00d4ff" stroke-width="0.8" opacity="0.054"/><line x1="427.6" y1="155.1" x2="424.9" y2="98.9" stroke="#00d4ff" stroke-width="0.8" opacity="0.108"/><line x1="427.6" y1="155.1" x2="413.2" y2="90.9" stroke="#00d4ff" stroke-width="0.8" opacity="0.101"/><line x1="1191.5" y1="373.4" x2="1096.7" y2="278.2" stroke="#00d4ff" stroke-width="0.8" opacity="0.049"/><line x1="741.6" y1="36.1" x2="637.0" y2="90.8" stroke="#00d4ff" stroke-width="0.8" opacity="0.061"/><line x1="741.6" y1="36.1" x2="870.8" y2="18.2" stroke="#00d4ff" stroke-width="0.8" opacity="0.052"/><line x1="881.7" y1="236.8" x2="796.9" y2="250.7" stroke="#00d4ff" stroke-width="0.8" opacity="0.086"/><line x1="881.7" y1="236.8" x2="786.2" y2="248.9" stroke="#00d4ff" stroke-width="0.8" opacity="0.078"/><line x1="387.7" y1="268.4" x2="453.7" y2="283.8" stroke="#00d4ff" stroke-width="0.8" opacity="0.099"/><line x1="387.7" y1="268.4" x2="303.6" y2="203.8" stroke="#00d4ff" stroke-width="0.8" opacity="0.071"/><line x1="387.7" y1="268.4" x2="302.9" y2="183.0" stroke="#00d4ff" stroke-width="0.8" opacity="0.060"/><line x1="387.7" y1="268.4" x2="371.1" y2="466.5" stroke="#00d4ff" stroke-width="0.8" opacity="0.001"/><line x1="387.7" y1="268.4" x2="424.9" y2="98.9" stroke="#00d4ff" stroke-width="0.8" opacity="0.020"/><line x1="387.7" y1="268.4" x2="413.2" y2="90.9" stroke="#00d4ff" stroke-width="0.8" opacity="0.016"/><line x1="796.9" y1="250.7" x2="786.2" y2="248.9" stroke="#00d4ff" stroke-width="0.8" opacity="0.142"/><line x1="163.4" y1="390.6" x2="59.8" y2="301.2" stroke="#00d4ff" stroke-width="0.8" opacity="0.047"/><line x1="1070.5" y1="81.8" x2="1096.7" y2="278.2" stroke="#00d4ff" stroke-width="0.8" opacity="0.001"/><line x1="1070.5" y1="81.8" x2="1186.9" y2="123.7" stroke="#00d4ff" stroke-width="0.8" opacity="0.057"/><line x1="1070.5" y1="81.8" x2="1058.9" y2="89.0" stroke="#00d4ff" stroke-width="0.8" opacity="0.140"/><line x1="1070.5" y1="81.8" x2="1119.1" y2="121.8" stroke="#00d4ff" stroke-width="0.8" opacity="0.103"/><line x1="1070.5" y1="81.8" x2="1179.2" y2="134.7" stroke="#00d4ff" stroke-width="0.8" opacity="0.059"/><line x1="453.7" y1="283.8" x2="303.6" y2="203.8" stroke="#00d4ff" stroke-width="0.8" opacity="0.022"/><line x1="453.7" y1="283.8" x2="302.9" y2="183.0" stroke="#00d4ff" stroke-width="0.8" opacity="0.014"/><line x1="453.7" y1="283.8" x2="602.9" y2="355.3" stroke="#00d4ff" stroke-width="0.8" opacity="0.026"/><line x1="453.7" y1="283.8" x2="424.9" y2="98.9" stroke="#00d4ff" stroke-width="0.8" opacity="0.010"/><line x1="453.7" y1="283.8" x2="554.7" y2="411.2" stroke="#00d4ff" stroke-width="0.8" opacity="0.028"/><line x1="453.7" y1="283.8" x2="413.2" y2="90.9" stroke="#00d4ff" stroke-width="0.8" opacity="0.002"/><line x1="303.6" y1="203.8" x2="302.9" y2="183.0" stroke="#00d4ff" stroke-width="0.8" opacity="0.134"/><line x1="303.6" y1="203.8" x2="194.9" y2="79.8" stroke="#00d4ff" stroke-width="0.8" opacity="0.026"/><line x1="303.6" y1="203.8" x2="424.9" y2="98.9" stroke="#00d4ff" stroke-width="0.8" opacity="0.030"/><line x1="303.6" y1="203.8" x2="413.2" y2="90.9" stroke="#00d4ff" stroke-width="0.8" opacity="0.032"/><line x1="1096.7" y1="278.2" x2="1186.9" y2="123.7" stroke="#00d4ff" stroke-width="0.8" opacity="0.016"/><line x1="1096.7" y1="278.2" x2="1058.9" y2="89.0" stroke="#00d4ff" stroke-width="0.8" opacity="0.005"/><line x1="1096.7" y1="278.2" x2="1119.1" y2="121.8" stroke="#00d4ff" stroke-width="0.8" opacity="0.032"/><line x1="1096.7" y1="278.2" x2="1179.2" y2="134.7" stroke="#00d4ff" stroke-width="0.8" opacity="0.026"/><line x1="891.9" y1="627.9" x2="763.1" y2="598.6" stroke="#00d4ff" stroke-width="0.8" opacity="0.051"/><line x1="1186.9" y1="123.7" x2="1058.9" y2="89.0" stroke="#00d4ff" stroke-width="0.8" opacity="0.051"/><line x1="1186.9" y1="123.7" x2="1119.1" y2="121.8" stroke="#00d4ff" stroke-width="0.8" opacity="0.099"/><line x1="1186.9" y1="123.7" x2="1179.2" y2="134.7" stroke="#00d4ff" stroke-width="0.8" opacity="0.140"/><line x1="618.1" y1="502.1" x2="763.1" y2="598.6" stroke="#00d4ff" stroke-width="0.8" opacity="0.019"/><line x1="618.1" y1="502.1" x2="602.9" y2="355.3" stroke="#00d4ff" stroke-width="0.8" opacity="0.039"/><line x1="618.1" y1="502.1" x2="554.7" y2="411.2" stroke="#00d4ff" stroke-width="0.8" opacity="0.067"/><line x1="1058.9" y1="89.0" x2="1119.1" y2="121.8" stroke="#00d4ff" stroke-width="0.8" opacity="0.099"/><line x1="1058.9" y1="89.0" x2="1179.2" y2="134.7" stroke="#00d4ff" stroke-width="0.8" opacity="0.054"/><line x1="1119.1" y1="121.8" x2="1179.2" y2="134.7" stroke="#00d4ff" stroke-width="0.8" opacity="0.104"/><line x1="302.9" y1="183.0" x2="194.9" y2="79.8" stroke="#00d4ff" stroke-width="0.8" opacity="0.038"/><line x1="302.9" y1="183.0" x2="424.9" y2="98.9" stroke="#00d4ff" stroke-width="0.8" opacity="0.039"/><line x1="302.9" y1="183.0" x2="413.2" y2="90.9" stroke="#00d4ff" stroke-width="0.8" opacity="0.042"/><line x1="371.1" y1="466.5" x2="554.7" y2="411.2" stroke="#00d4ff" stroke-width="0.8" opacity="0.006"/><line x1="602.9" y1="355.3" x2="554.7" y2="411.2" stroke="#00d4ff" stroke-width="0.8" opacity="0.095"/><line x1="424.9" y1="98.9" x2="413.2" y2="90.9" stroke="#00d4ff" stroke-width="0.8" opacity="0.139"/><circle cx="182.6" cy="349.4" r="1.5" fill="#00d4ff" opacity="0.4"/><circle cx="182.6" cy="349.4" r="0.8" fill="#00d4ff" opacity="0.8"/><circle cx="87.1" cy="259.3" r="3.2" fill="#00d4ff" opacity="0.4"/><circle cx="87.1" cy="259.3" r="1.6" fill="#00d4ff" opacity="0.8"/><circle cx="906.7" cy="281.6" r="4.2" fill="#00d4ff" opacity="0.4"/><circle cx="906.7" cy="281.6" r="2.1" fill="#00d4ff" opacity="0.8"/><circle cx="968.5" cy="465.4" r="2.1" fill="#00d4ff" opacity="0.4"/><circle cx="968.5" cy="465.4" r="1.0" fill="#00d4ff" opacity="0.8"/><circle cx="555.0" cy="538.9" r="4.0" fill="#00d4ff" opacity="0.4"/><circle cx="555.0" cy="538.9" r="2.0" fill="#00d4ff" opacity="0.8"/><circle cx="427.6" cy="155.1" r="2.8" fill="#00d4ff" opacity="0.4"/><circle cx="427.6" cy="155.1" r="1.4" fill="#00d4ff" opacity="0.8"/><circle cx="1191.5" cy="373.4" r="4.3" fill="#00d4ff" opacity="0.4"/><circle cx="1191.5" cy="373.4" r="2.1" fill="#00d4ff" opacity="0.8"/><circle cx="741.6" cy="36.1" r="3.3" fill="#00d4ff" opacity="0.4"/><circle cx="741.6" cy="36.1" r="1.7" fill="#00d4ff" opacity="0.8"/><circle cx="881.7" cy="236.8" r="2.0" fill="#00d4ff" opacity="0.4"/><circle cx="881.7" cy="236.8" r="1.0" fill="#00d4ff" opacity="0.8"/><circle cx="15.2" cy="627.8" r="3.3" fill="#00d4ff" opacity="0.4"/><circle cx="15.2" cy="627.8" r="1.7" fill="#00d4ff" opacity="0.8"/><circle cx="387.7" cy="268.4" r="2.0" fill="#00d4ff" opacity="0.4"/><circle cx="387.7" cy="268.4" r="1.0" fill="#00d4ff" opacity="0.8"/><circle cx="796.9" cy="250.7" r="2.2" fill="#00d4ff" opacity="0.4"/><circle cx="796.9" cy="250.7" r="1.1" fill="#00d4ff" opacity="0.8"/><circle cx="163.4" cy="390.6" r="2.2" fill="#00d4ff" opacity="0.4"/><circle cx="163.4" cy="390.6" r="1.1" fill="#00d4ff" opacity="0.8"/><circle cx="1070.5" cy="81.8" r="2.0" fill="#00d4ff" opacity="0.4"/><circle cx="1070.5" cy="81.8" r="1.0" fill="#00d4ff" opacity="0.8"/><circle cx="453.7" cy="283.8" r="1.7" fill="#00d4ff" opacity="0.4"/><circle cx="453.7" cy="283.8" r="0.9" fill="#00d4ff" opacity="0.8"/><circle cx="303.6" cy="203.8" r="2.9" fill="#00d4ff" opacity="0.4"/><circle cx="303.6" cy="203.8" r="1.4" fill="#00d4ff" opacity="0.8"/><circle cx="637.0" cy="90.8" r="4.4" fill="#00d4ff" opacity="0.4"/><circle cx="637.0" cy="90.8" r="2.2" fill="#00d4ff" opacity="0.8"/><circle cx="1096.7" cy="278.2" r="3.2" fill="#00d4ff" opacity="0.4"/><circle cx="1096.7" cy="278.2" r="1.6" fill="#00d4ff" opacity="0.8"/><circle cx="891.9" cy="627.9" r="3.7" fill="#00d4ff" opacity="0.4"/><circle cx="891.9" cy="627.9" r="1.9" fill="#00d4ff" opacity="0.8"/><circle cx="1186.9" cy="123.7" r="2.6" fill="#00d4ff" opacity="0.4"/><circle cx="1186.9" cy="123.7" r="1.3" fill="#00d4ff" opacity="0.8"/><circle cx="786.2" cy="248.9" r="2.9" fill="#00d4ff" opacity="0.4"/><circle cx="786.2" cy="248.9" r="1.4" fill="#00d4ff" opacity="0.8"/><circle cx="618.1" cy="502.1" r="1.6" fill="#00d4ff" opacity="0.4"/><circle cx="618.1" cy="502.1" r="0.8" fill="#00d4ff" opacity="0.8"/><circle cx="1058.9" cy="89.0" r="2.1" fill="#00d4ff" opacity="0.4"/><circle cx="1058.9" cy="89.0" r="1.0" fill="#00d4ff" opacity="0.8"/><circle cx="1119.1" cy="121.8" r="2.5" fill="#00d4ff" opacity="0.4"/><circle cx="1119.1" cy="121.8" r="1.2" fill="#00d4ff" opacity="0.8"/><circle cx="302.9" cy="183.0" r="3.7" fill="#00d4ff" opacity="0.4"/><circle cx="302.9" cy="183.0" r="1.9" fill="#00d4ff" opacity="0.8"/><circle cx="194.9" cy="79.8" r="3.6" fill="#00d4ff" opacity="0.4"/><circle cx="194.9" cy="79.8" r="1.8" fill="#00d4ff" opacity="0.8"/><circle cx="371.1" cy="466.5" r="2.5" fill="#00d4ff" opacity="0.4"/><circle cx="371.1" cy="466.5" r="1.3" fill="#00d4ff" opacity="0.8"/><circle cx="763.1" cy="598.6" r="4.4" fill="#00d4ff" opacity="0.4"/><circle cx="763.1" cy="598.6" r="2.2" fill="#00d4ff" opacity="0.8"/><circle cx="870.8" cy="18.2" r="4.2" fill="#00d4ff" opacity="0.4"/><circle cx="870.8" cy="18.2" r="2.1" fill="#00d4ff" opacity="0.8"/><circle cx="602.9" cy="355.3" r="3.8" fill="#00d4ff" opacity="0.4"/><circle cx="602.9" cy="355.3" r="1.9" fill="#00d4ff" opacity="0.8"/><circle cx="424.9" cy="98.9" r="1.7" fill="#00d4ff" opacity="0.4"/><circle cx="424.9" cy="98.9" r="0.8" fill="#00d4ff" opacity="0.8"/><circle cx="59.8" cy="301.2" r="2.4" fill="#00d4ff" opacity="0.4"/><circle cx="59.8" cy="301.2" r="1.2" fill="#00d4ff" opacity="0.8"/><circle cx="1179.2" cy="134.7" r="3.6" fill="#00d4ff" opacity="0.4"/><circle cx="1179.2" cy="134.7" r="1.8" fill="#00d4ff" opacity="0.8"/><circle cx="554.7" cy="411.2" r="2.8" fill="#00d4ff" opacity="0.4"/><circle cx="554.7" cy="411.2" r="1.4" fill="#00d4ff" opacity="0.8"/><circle cx="413.2" cy="90.9" r="1.9" fill="#00d4ff" opacity="0.4"/><circle cx="413.2" cy="90.9" r="0.9" fill="#00d4ff" opacity="0.8"/>

  <!-- Central icon -->
  
    <g transform="translate(600,220)">
      <!-- Brain outline -->
      <ellipse cx="0" cy="-10" rx="80" ry="70" fill="none" stroke="#00d4ff" stroke-width="2" opacity="0.6"/>
      <ellipse cx="-20" cy="-15" rx="50" ry="55" fill="none" stroke="#00d4ff" stroke-width="1.5" opacity="0.4"/>
      <ellipse cx="20" cy="-15" rx="50" ry="55" fill="none" stroke="#00d4ff" stroke-width="1.5" opacity="0.4"/>
      <!-- Circuit paths inside brain -->
      <line x1="-40" y1="-30" x2="0" y2="-50" stroke="#00d4ff" stroke-width="2" opacity="0.8"/>
      <line x1="0" y1="-50" x2="40" y2="-20" stroke="#00d4ff" stroke-width="2" opacity="0.8"/>
      <line x1="-30" y1="10" x2="10" y2="-10" stroke="#7c3aed" stroke-width="2" opacity="0.7"/>
      <line x1="10" y1="-10" x2="35" y2="15" stroke="#7c3aed" stroke-width="2" opacity="0.7"/>
      <line x1="-15" y1="-40" x2="-15" y2="20" stroke="#00d4ff" stroke-width="1.5" opacity="0.5"/>
      <line x1="15" y1="-45" x2="15" y2="25" stroke="#00d4ff" stroke-width="1.5" opacity="0.5"/>
      <!-- Circuit nodes -->
      <circle cx="0" cy="-50" r="5" fill="#00d4ff" opacity="0.9"/>
      <circle cx="-40" cy="-30" r="4" fill="#7c3aed" opacity="0.8"/>
      <circle cx="40" cy="-20" r="4" fill="#7c3aed" opacity="0.8"/>
      <circle cx="10" cy="-10" r="5" fill="#00d4ff" opacity="0.9"/>
      <circle cx="-30" cy="10" r="3" fill="#00d4ff" opacity="0.7"/>
      <circle cx="35" cy="15" r="3" fill="#00d4ff" opacity="0.7"/>
      <!-- Glow effect -->
      <circle cx="0" cy="-10" r="90" fill="#00d4ff" opacity="0.03"/>
      <circle cx="0" cy="-10" r="60" fill="#00d4ff" opacity="0.05"/>
    </g>

  <!-- Accent line -->
  <line x1="200" y1="336" x2="1000" y2="336" stroke="#00d4ff" stroke-width="1" opacity="0.3"/>

  <!-- Text backdrop gradient -->
  <rect x="0" y="296" width="1200" height="334" fill="url(#textBg)"/>

  <!-- Title -->
  <text x="600" y="366" text-anchor="middle" fill="white" font-family="'Segoe UI',Arial,Helvetica,sans-serif" font-size="40" font-weight="bold" filter="url(#glow)">
    <tspan x="600" dy="0">Brave Search Review: The</tspan>
    <tspan x="600" dy="48">Independent Search Engine That</tspan>
    <tspan x="600" dy="48">Actually Works</tspan>
  </text>

  <!-- Brand -->
  <text x="600" y="605" text-anchor="middle" fill="#00d4ff" font-family="'Segoe UI',Arial,sans-serif" font-size="18" opacity="0.6" letter-spacing="3">AGENTRANK.TECH</text>
</svg>